<svg width="570" height="272" viewBox="0 0 570 272" fill="none" xmlns="http://www.w3.org/2000/svg">
<rect x="298" width="272" height="272" fill="white"/>
<g clip-path="url(#clip0_71_2)">
<rect x="190" y="103" width="1512" height="55" fill="white"/>
<mask id="mask0_71_2" style="mask-type:luminance" maskUnits="userSpaceOnUse" x="346" y="113" width="176" height="46">
<path d="M522 113.075H346V158.925H522V113.075Z" fill="white"/>
</mask>
<g mask="url(#mask0_71_2)">
<mask id="mask1_71_2" style="mask-type:luminance" maskUnits="userSpaceOnUse" x="346" y="113" width="176" height="46">
<path d="M522 113H346V159H522V113Z" fill="white"/>
</mask>
<g mask="url(#mask1_71_2)">
<path d="M522 113.075H346V158.925H522V113.075Z" fill="#D40000"/>
</g>
</g>
<path d="M353.547 120.053H379.007V123.391L358.474 148.293H379.519V151.947H353.02V148.609L373.553 123.707H353.547V120.053Z" fill="white"/>
<path d="M394.192 120.053H399.118L411.486 151.947H406.982L404.044 143.812H389.371L386.433 151.947H381.824L394.192 120.053ZM396.708 124.323L390.742 140.158H402.688L396.723 124.323H396.708Z" fill="white"/>
<path d="M416.186 120.053H427.394C430.754 120.053 433.254 120.774 435.152 122.143C436.93 123.496 437.879 125.481 437.879 127.977C437.879 129.962 437.457 131.526 436.523 132.669C435.574 133.812 434.218 134.549 432.441 134.865C434.64 135.286 436.312 136.218 437.472 137.677C438.617 139.135 439.25 140.91 439.25 143.09C439.25 145.902 438.301 148.098 436.312 149.662C434.324 151.226 431.597 151.947 427.936 151.947H416.201V120.053H416.186ZM420.585 123.602V133.195H427.078C429.172 133.195 430.844 132.774 431.898 132.053C432.953 131.226 433.465 130.068 433.465 128.399C433.465 126.835 432.938 125.586 431.898 124.744C430.844 123.917 429.277 123.602 427.078 123.602H420.585ZM420.585 136.729V148.399H427.605C430.015 148.399 431.688 147.872 432.848 146.94C433.992 146.008 434.52 144.549 434.52 142.564C434.52 140.579 433.992 139.12 432.848 138.188C431.703 137.256 429.91 136.729 427.605 136.729H420.585Z" fill="white"/>
<path d="M446.255 120.053H457.463C460.823 120.053 463.323 120.774 465.221 122.143C466.999 123.496 467.948 125.481 467.948 127.977C467.948 129.962 467.526 131.526 466.592 132.669C465.643 133.812 464.287 134.549 462.51 134.865C464.709 135.286 466.381 136.218 467.541 137.677C468.701 139.135 469.319 140.91 469.319 143.09C469.319 145.902 468.37 148.098 466.381 149.662C464.393 151.226 461.666 151.947 458.005 151.947H446.27V120.053H446.255ZM450.654 123.602V133.195H457.147C459.241 133.195 460.913 132.774 461.967 132.053C463.022 131.226 463.534 130.068 463.534 128.399C463.534 126.835 463.007 125.586 461.967 124.744C460.913 123.917 459.346 123.602 457.147 123.602H450.654ZM450.654 136.729V148.399H457.674C459.979 148.399 461.757 147.872 462.917 146.94C464.061 146.008 464.589 144.549 464.589 142.564C464.589 140.579 464.061 139.12 462.917 138.188C461.757 137.256 459.979 136.729 457.674 136.729H450.654Z" fill="white"/>
<path d="M488.888 120.053H493.709L501.361 131.526L509.105 120.053H513.714L503.666 134.955L514.98 151.947H510.159L501.256 138.609L492.353 151.947H487.638L498.951 135.06L488.888 120.053Z" fill="white"/>
<path d="M480.617 120.053H476.219V151.947H480.617V120.053Z" fill="white"/>
</g>
<rect width="272" height="272" fill="#00476D"/>
<g clip-path="url(#clip1_71_2)">
<rect x="-108" y="103" width="1512" height="55" fill="white"/>
<mask id="mask2_71_2" style="mask-type:luminance" maskUnits="userSpaceOnUse" x="48" y="113" width="176" height="46">
<path d="M224 113.075H48V158.925H224V113.075Z" fill="white"/>
</mask>
<g mask="url(#mask2_71_2)">
<mask id="mask3_71_2" style="mask-type:luminance" maskUnits="userSpaceOnUse" x="48" y="113" width="176" height="46">
<path d="M224 113H48V159H224V113Z" fill="white"/>
</mask>
<g mask="url(#mask3_71_2)">
<path d="M224 113.075H48V158.925H224V113.075Z" fill="#D40000"/>
</g>
</g>
<path d="M55.5474 120.053H81.0066V123.391L60.4735 148.293H81.5188V151.947H55.0201V148.609L75.5532 123.707H55.5474V120.053Z" fill="white"/>
<path d="M96.1917 120.053H101.118L113.486 151.947H108.982L106.044 143.812H91.3711L88.4334 151.947H83.8237L96.1917 120.053ZM98.7075 124.323L92.7419 140.158H104.688L98.7226 124.323H98.7075Z" fill="white"/>
<path d="M118.186 120.053H129.394C132.754 120.053 135.254 120.774 137.152 122.143C138.93 123.496 139.879 125.481 139.879 127.977C139.879 129.962 139.457 131.526 138.523 132.669C137.574 133.812 136.218 134.549 134.441 134.865C136.64 135.286 138.312 136.218 139.472 137.677C140.617 139.135 141.25 140.91 141.25 143.09C141.25 145.902 140.301 148.098 138.312 149.662C136.324 151.226 133.597 151.947 129.936 151.947H118.201V120.053H118.186ZM122.585 123.602V133.195H129.078C131.172 133.195 132.844 132.774 133.898 132.053C134.953 131.226 135.465 130.068 135.465 128.399C135.465 126.835 134.938 125.586 133.898 124.744C132.844 123.917 131.277 123.602 129.078 123.602H122.585ZM122.585 136.729V148.399H129.605C132.015 148.399 133.688 147.872 134.848 146.94C135.992 146.008 136.52 144.549 136.52 142.564C136.52 140.579 135.992 139.12 134.848 138.188C133.703 137.256 131.91 136.729 129.605 136.729H122.585Z" fill="white"/>
<path d="M148.255 120.053H159.463C162.823 120.053 165.323 120.774 167.221 122.143C168.999 123.496 169.948 125.481 169.948 127.977C169.948 129.962 169.526 131.526 168.592 132.669C167.643 133.812 166.287 134.549 164.51 134.865C166.709 135.286 168.381 136.218 169.541 137.677C170.701 139.135 171.319 140.91 171.319 143.09C171.319 145.902 170.37 148.098 168.381 149.662C166.393 151.226 163.666 151.947 160.005 151.947H148.27V120.053H148.255ZM152.654 123.602V133.195H159.147C161.241 133.195 162.913 132.774 163.967 132.053C165.022 131.226 165.534 130.068 165.534 128.399C165.534 126.835 165.007 125.586 163.967 124.744C162.913 123.917 161.346 123.602 159.147 123.602H152.654ZM152.654 136.729V148.399H159.674C161.979 148.399 163.757 147.872 164.917 146.94C166.061 146.008 166.589 144.549 166.589 142.564C166.589 140.579 166.061 139.12 164.917 138.188C163.757 137.256 161.979 136.729 159.674 136.729H152.654Z" fill="white"/>
<path d="M190.888 120.053H195.709L203.361 131.526L211.105 120.053H215.714L205.666 134.955L216.98 151.947H212.159L203.256 138.609L194.353 151.947H189.638L200.951 135.06L190.888 120.053Z" fill="white"/>
<path d="M182.617 120.053H178.219V151.947H182.617V120.053Z" fill="white"/>
</g>
<defs>
<clipPath id="clip0_71_2">
<rect width="176" height="46" fill="white" transform="translate(346 113)"/>
</clipPath>
<clipPath id="clip1_71_2">
<rect width="176" height="46" fill="white" transform="translate(48 113)"/>
</clipPath>
</defs>
</svg>
